<mxfile host="app.diagrams.net" modified="2024-03-04T19:31:28.812Z" agent="Mozilla/5.0 (Windows NT 10.0; WOW64) AppleWebKit/537.36 (KHTML, like Gecko) Chrome/86.0.4240.198 Safari/537.36" etag="adJCOuVgvgnMvXV43Mha" version="23.1.7" type="github">
  <diagram name="第 1 页" id="b1nleuxKnWnKqVBYl1kN">
    <mxGraphModel dx="1101" dy="639" grid="0" gridSize="10" guides="1" tooltips="1" connect="1" arrows="1" fold="1" page="0" pageScale="1" pageWidth="4681" pageHeight="3300" math="0" shadow="0">
      <root>
        <mxCell id="0" />
        <mxCell id="1" parent="0" />
        <mxCell id="h8fz8JRMKgL8PSqhsyeO-25" style="edgeStyle=orthogonalEdgeStyle;rounded=0;orthogonalLoop=1;jettySize=auto;html=1;exitX=1;exitY=0.5;exitDx=0;exitDy=0;exitPerimeter=0;entryX=0;entryY=0.5;entryDx=0;entryDy=0;" edge="1" parent="1" source="h8fz8JRMKgL8PSqhsyeO-2" target="h8fz8JRMKgL8PSqhsyeO-24">
          <mxGeometry relative="1" as="geometry" />
        </mxCell>
        <mxCell id="h8fz8JRMKgL8PSqhsyeO-2" value="&lt;font style=&quot;font-size: 16px;&quot;&gt;开始&lt;/font&gt;" style="strokeWidth=2;html=1;shape=mxgraph.flowchart.terminator;whiteSpace=wrap;" vertex="1" parent="1">
          <mxGeometry x="66" y="177" width="120" height="60" as="geometry" />
        </mxCell>
        <mxCell id="h8fz8JRMKgL8PSqhsyeO-7" value="&lt;font style=&quot;font-size: 16px;&quot;&gt;结束&lt;/font&gt;" style="strokeWidth=2;html=1;shape=mxgraph.flowchart.terminator;whiteSpace=wrap;" vertex="1" parent="1">
          <mxGeometry x="701.5" y="415" width="120" height="60" as="geometry" />
        </mxCell>
        <mxCell id="h8fz8JRMKgL8PSqhsyeO-30" style="edgeStyle=orthogonalEdgeStyle;rounded=0;orthogonalLoop=1;jettySize=auto;html=1;exitX=1;exitY=0.5;exitDx=0;exitDy=0;exitPerimeter=0;entryX=0;entryY=0.5;entryDx=0;entryDy=0;" edge="1" parent="1" source="h8fz8JRMKgL8PSqhsyeO-15" target="h8fz8JRMKgL8PSqhsyeO-29">
          <mxGeometry relative="1" as="geometry" />
        </mxCell>
        <mxCell id="h8fz8JRMKgL8PSqhsyeO-15" value="&lt;font style=&quot;font-size: 16px;&quot;&gt;测试脚本运行&lt;/font&gt;" style="strokeWidth=2;html=1;shape=mxgraph.flowchart.decision;whiteSpace=wrap;" vertex="1" parent="1">
          <mxGeometry x="653" y="147.47" width="217" height="119.06" as="geometry" />
        </mxCell>
        <mxCell id="h8fz8JRMKgL8PSqhsyeO-27" style="edgeStyle=orthogonalEdgeStyle;rounded=0;orthogonalLoop=1;jettySize=auto;html=1;exitX=1;exitY=0.5;exitDx=0;exitDy=0;" edge="1" parent="1" source="h8fz8JRMKgL8PSqhsyeO-24" target="h8fz8JRMKgL8PSqhsyeO-26">
          <mxGeometry relative="1" as="geometry" />
        </mxCell>
        <mxCell id="h8fz8JRMKgL8PSqhsyeO-24" value="&lt;font style=&quot;font-size: 16px;&quot;&gt;选择输入、&lt;br&gt;输出数据源&lt;/font&gt;" style="rounded=1;whiteSpace=wrap;html=1;absoluteArcSize=1;arcSize=14;strokeWidth=2;" vertex="1" parent="1">
          <mxGeometry x="255.5" y="175" width="135" height="64" as="geometry" />
        </mxCell>
        <mxCell id="h8fz8JRMKgL8PSqhsyeO-28" style="edgeStyle=orthogonalEdgeStyle;rounded=0;orthogonalLoop=1;jettySize=auto;html=1;exitX=1;exitY=0.5;exitDx=0;exitDy=0;" edge="1" parent="1" source="h8fz8JRMKgL8PSqhsyeO-26" target="h8fz8JRMKgL8PSqhsyeO-15">
          <mxGeometry relative="1" as="geometry" />
        </mxCell>
        <mxCell id="h8fz8JRMKgL8PSqhsyeO-26" value="&lt;span style=&quot;font-size: 16px;&quot;&gt;连接数据转化&lt;br&gt;的脚本代码&lt;/span&gt;" style="rounded=1;whiteSpace=wrap;html=1;absoluteArcSize=1;arcSize=14;strokeWidth=2;" vertex="1" parent="1">
          <mxGeometry x="454" y="175" width="135" height="64" as="geometry" />
        </mxCell>
        <mxCell id="h8fz8JRMKgL8PSqhsyeO-29" value="&lt;span style=&quot;font-size: 16px;&quot;&gt;连接数据转化&lt;br&gt;的脚本代码&lt;/span&gt;" style="rounded=1;whiteSpace=wrap;html=1;absoluteArcSize=1;arcSize=14;strokeWidth=2;" vertex="1" parent="1">
          <mxGeometry x="934" y="175" width="135" height="64" as="geometry" />
        </mxCell>
        <mxCell id="h8fz8JRMKgL8PSqhsyeO-31" value="&lt;font style=&quot;font-size: 16px;&quot;&gt;成功&lt;/font&gt;" style="text;html=1;align=center;verticalAlign=middle;whiteSpace=wrap;rounded=0;" vertex="1" parent="1">
          <mxGeometry x="870" y="171" width="60" height="30" as="geometry" />
        </mxCell>
      </root>
    </mxGraphModel>
  </diagram>
</mxfile>
